<svg version="1.2" xmlns="http://www.w3.org/2000/svg" viewBox="0 0 970 970" width="970" height="970">
  <style>
    .s0 { fill: #4476a8 }
  </style>
  <path class="s0" d="m818.76 13.83l-537.43 314.98c-5.04 2.96-2.95 10.69 2.9 10.69h418.32c5.22 0 7.73 6.39 3.91 9.95l-216.05 200.92c-5.24 4.88-12.89-2.31-8.34-7.84l132.36-161.12c3.07-3.75 0.41-9.38-4.44-9.38h-400.82c-1.03 0-2.03 0.27-2.92 0.79l-135.41 79.71c-5.04 2.97-2.94 10.69 2.91 10.69h346.15c21.1 0 33.27 23.96 20.82 41l-324.53 444.17c-4.03 5.53 3.26 12.21 8.41 7.71l774.9-676.69c3.99-3.48 1.53-10.06-3.77-10.06h-200.72c-16.04 0-25.51-17.96-16.46-31.19l147.86-216.14c3.46-5.06-2.35-11.29-7.65-8.19z"/>
</svg>
